<svg width="40" height="40" viewBox="0 0 40 40" fill="none" xmlns="http://www.w3.org/2000/svg">
<g clip-path="url(#clip0)">
<path d="M4.82876 40.3733H30.5206L31.6666 40C34.0396 43.41 39.8197 45.7143 39.8197 45.7143L40.4166 4.58333C40.2941 2.03476 37.6215 0 35.0486 0L4.83777 0.00571429C2.2666 0.00571429 -0.833374 2.03476 -0.833374 4.58333L0.180115 35.6571C0.180115 38.3448 2.263 40.3733 4.82876 40.3733ZM23.8342 10.8248L23.7747 10.8476L23.7963 10.8248H23.8342ZM10.0846 13.2419C13.3873 10.701 16.4486 10.8229 16.4486 10.8229L16.6954 11.08C12.654 12.099 10.8216 14.0076 10.8216 14.0076C11.0089 13.9657 19.1693 8.98857 29.0576 14.1333C29.0576 14.1333 27.2215 12.3486 23.4288 11.2057L23.7639 10.8571C24.2882 10.859 27.063 10.9619 30.0324 13.2571C30.0324 13.2571 33.3549 19.2571 33.3549 26.6286C33.245 26.4876 31.2936 29.8019 26.272 29.9162C26.272 29.9162 25.4216 28.899 24.8161 28.0114C27.7531 27.12 28.8522 25.3371 28.8522 25.3371C23.1351 29.1429 18.1243 28.5486 12.1297 25.9771C12.0738 25.9771 12.0486 25.9505 12.0198 25.92V25.9086C11.9909 25.88 11.9657 25.8514 11.9098 25.8514H11.8017C11.4342 25.5962 11.1891 25.4705 11.1891 25.4705C11.1891 25.4705 12.2864 27.2533 15.1062 28.1448C14.3657 29.0381 13.6324 30.0533 13.6324 30.0533C8.61255 29.9276 6.78191 26.6133 6.78191 26.6133C6.78191 19.2305 10.0846 13.2419 10.0846 13.2419Z" fill="white"/>
<path d="M24.1584 24.3257C25.4395 24.3257 26.4828 23.1828 26.4828 21.7733C26.4828 20.3733 25.4449 19.2305 24.1584 19.2305V19.2362C22.8828 19.2362 21.8377 20.3752 21.8341 21.7848C21.8341 23.1828 22.8773 24.3257 24.1584 24.3257Z" fill="white"/>
<path d="M15.8377 24.3257C17.1188 24.3257 18.1621 23.1828 18.1621 21.7733C18.1621 20.3733 17.126 19.2305 15.845 19.2305L15.8377 19.2362C14.5567 19.2362 13.5134 20.3752 13.5134 21.7848C13.5134 23.1828 14.5567 24.3257 15.8377 24.3257Z" fill="white"/>
</g>
<defs>
<clipPath id="clip0">
<rect width="40" height="40" rx="20" fill="white"/>
</clipPath>
</defs>
</svg>
