<svg width="40" height="40" viewBox="0 0 40 40" fill="none" xmlns="http://www.w3.org/2000/svg">
<path fill-rule="evenodd" clip-rule="evenodd" d="M20 0C8.95431 0 0 8.95431 0 20C0 31.0457 8.95431 40 20 40C31.0457 40 40 31.0457 40 20C40 8.95431 31.0457 0 20 0ZM31.6667 11.2233L29.8049 13.0044C29.6454 13.124 29.5637 13.3262 29.5978 13.5235V26.6165C29.5637 26.8128 29.6464 27.0151 29.8058 27.1356L31.6239 28.9158V29.3056H22.4733V28.9148L24.3594 27.0899C24.5422 26.9071 24.5422 26.8498 24.5422 26.5708V15.992L19.299 29.2716H18.5903L12.4925 15.992V24.8917C12.439 25.268 12.5644 25.6423 12.8299 25.9126L15.2799 28.8769V29.2667H8.33333V28.8817L10.7833 25.9126C11.0439 25.6433 11.1644 25.2621 11.0974 24.8917V14.6027C11.1255 14.3178 11.0147 14.0349 10.8028 13.8415L8.62791 11.2233V10.8334H15.3907L20.6203 22.2745L25.2169 10.8334H31.6667V11.2233Z" fill="white"/>
</svg>
