<svg width="40" height="40" viewBox="0 0 40 40" fill="none" xmlns="http://www.w3.org/2000/svg">
<path fill-rule="evenodd" clip-rule="evenodd" d="M40 20C40 31.0457 31.0457 40 20 40C8.9543 40 0 31.0457 0 20C0 8.9543 8.9543 0 20 0C31.0457 0 40 8.9543 40 20ZM28.435 12.1316L9.1517 19.5666C7.83003 20.0833 7.85336 20.8149 8.92503 21.1549L13.8617 22.6949L25.3134 15.4849C25.845 15.1316 26.3384 15.3316 25.935 15.6866L16.6684 24.0583L16.3134 29.1466C16.83 29.1466 17.055 28.9216 17.3217 28.6549L19.7334 26.3316L24.7334 30.0166C25.645 30.5333 26.2967 30.2666 26.54 29.1699L29.8234 13.7016L29.8217 13.7033C30.1117 12.3499 29.33 11.8083 28.435 12.1316Z" fill="white"/>
<rect x="0.5" y="0.5" width="39" height="39" rx="19.5" stroke="white"/>
</svg>
